<svg width="52" height="52" viewBox="0 0 52 52" fill="none" xmlns="http://www.w3.org/2000/svg">
<g clip-path="url(#clip0_2_43)">
<path d="M42.122 15.7061C42.912 14.5788 43.2563 13.3126 43.0414 12.0325C42.2687 7.4315 35.1106 6.02491 29.8142 8.51573V1.58328C29.8142 0.708676 29.1056 0 28.2309 0H23.7688C22.8945 0 22.1856 0.708676 22.1856 1.58328V8.51573C16.8157 5.98987 9.72156 7.48786 8.95841 12.0325C8.74351 13.3126 9.08782 14.5788 9.87777 15.7061C5.53536 19.6802 3.07558 25.0891 3.07558 30.7859C3.07558 42.4834 13.3595 52 26 52C38.6405 52 48.9244 42.4834 48.9244 30.7859C48.9242 25.0889 46.4644 19.68 42.122 15.7061ZM13.7792 10.9557C16.4444 9.87735 20.6323 10.6228 22.661 12.609C22.662 12.6101 22.6633 12.6109 22.6643 12.612C23.5626 13.4866 25.3519 13.1015 25.3519 11.2616V3.16656H26.6475V11.2618C26.6475 11.9981 26.8809 12.692 27.6177 12.9375C28.7323 13.4041 29.5495 12.4024 29.3384 12.609C31.3684 10.6213 35.5554 9.87798 38.2202 10.9557C41.7661 12.3905 39.1917 15.2295 35.7705 16.1889C34.6766 16.4957 34.2537 17.8235 34.9654 18.7068C36.7929 20.9747 37.0496 23.258 36.236 24.0716C35.2499 25.0589 32.3897 24.4047 30.0414 22.0564C28.5303 20.5455 27.5884 18.685 27.5829 17.2014C27.5797 16.3293 26.8719 15.6238 25.9996 15.6238C25.1273 15.6238 24.4195 16.3293 24.4163 17.2014C24.411 18.685 23.4691 20.5455 21.9578 22.0564C19.6084 24.406 16.7488 25.0581 15.7631 24.0716C14.9504 23.2586 15.2048 20.9766 17.0338 18.7068C17.7467 17.8223 17.3209 16.4955 16.2288 16.1889C12.8136 15.2312 10.2286 12.3927 13.7792 10.9557ZM25.9998 48.8334C15.1053 48.8334 6.24193 40.7372 6.24193 30.7859C6.24193 25.9016 8.40384 21.2531 12.2132 17.8622C12.5725 18.0887 12.9563 18.3 13.3642 18.4925C11.9265 21.0614 11.4967 24.2835 13.5242 26.3107C16.6253 29.4112 22.8932 26.9445 25.9998 22.0559C29.0443 26.847 35.3509 29.4336 38.4754 26.3107C40.5244 24.2618 40.0397 21.0011 38.6354 18.4925C39.0433 18.2998 39.4269 18.0885 39.7864 17.8622C43.5959 21.2531 45.7577 25.9016 45.7577 30.7859C45.7577 40.7374 36.8945 48.8334 25.9998 48.8334Z" fill="black"/>
<path d="M12.575 30.7859C12.575 29.9113 11.8664 29.2027 10.9918 29.2027C10.1172 29.2027 9.40849 29.9113 9.40849 30.7859C9.40849 34.0982 10.5987 37.2343 12.8501 39.8556C13.4203 40.5195 14.4203 40.5943 15.0828 40.0251C15.7463 39.4553 15.822 38.4558 15.2523 37.7925C13.5007 35.7532 12.575 33.3306 12.575 30.7859Z" fill="black"/>
</g>
<defs>
<clipPath id="clip0_2_43">
<rect width="52" height="52" fill="white"/>
</clipPath>
</defs>
</svg>
