<svg width="287" height="54" viewBox="0 0 287 54" fill="none" xmlns="http://www.w3.org/2000/svg">
<g clip-path="url(#clip0_6_300)">
<path d="M134.519 21.7516C133.949 22.242 133.174 22.6485 132.276 22.9005C133.623 24.5723 133.962 26.5285 132.988 27.5022C131.897 28.5929 129.574 28.0377 127.798 26.2621C126.642 25.1061 126.004 23.7182 126 22.589C125.996 23.718 125.358 25.1061 124.202 26.2621C122.426 28.0377 120.102 28.5929 119.012 27.5022C118.038 26.5284 118.377 24.5723 119.724 22.9005C118.825 22.6484 118.051 22.242 117.481 21.7516C114.658 23.9673 112.867 27.2637 112.867 30.9452C112.867 37.6171 118.747 43.0257 126 43.0257C133.253 43.0257 139.133 37.6171 139.133 30.9452C139.133 27.2637 137.342 23.9673 134.519 21.7516Z" fill="#DD514F"/>
<path d="M135.526 19.566C135.271 18.0447 133.056 17.1486 130.579 17.5646C129.24 17.7896 128.098 18.353 127.373 19.0634V12.9743C126.379 12.9743 125.621 12.9743 124.627 12.9743V19.0632C123.901 18.3529 122.76 17.7896 121.42 17.5645C118.944 17.1486 116.729 18.0447 116.474 19.566C116.246 20.9241 117.657 22.3206 119.724 22.9006C118.377 24.5725 118.038 26.5286 119.012 27.5023C120.102 28.5931 122.426 28.0378 124.202 26.2622C125.358 25.1063 125.996 23.7183 126 22.5891C126.004 23.7182 126.642 25.1063 127.798 26.2622C129.574 28.0378 131.898 28.5931 132.988 27.5023C133.962 26.5285 133.623 24.5725 132.276 22.9006C134.343 22.3205 135.754 20.9241 135.526 19.566Z" fill="#30BAA1"/>
<path d="M135.921 21.6653C136.407 20.9716 136.619 20.1924 136.487 19.4046C136.012 16.5732 131.607 15.7076 128.347 17.2404V12.9743C128.347 12.4361 127.911 12 127.373 12H124.627C124.089 12 123.653 12.4361 123.653 12.9743V17.2404C120.348 15.6861 115.982 16.6079 115.513 19.4046C115.381 20.1924 115.593 20.9716 116.079 21.6653C113.406 24.1109 111.893 27.4394 111.893 30.9452C111.893 38.1437 118.221 44 126 44C133.779 44 140.107 38.1437 140.107 30.9452C140.107 27.4393 138.593 24.1108 135.921 21.6653ZM118.479 18.742C120.12 18.0784 122.697 18.5371 123.945 19.7594C123.946 19.7601 123.947 19.7606 123.947 19.7612C124.5 20.2994 125.601 20.0625 125.601 18.9302V13.9487H126.398V18.9303C126.398 19.3834 126.542 19.8105 126.996 19.9615L126.996 19.9617C127.682 20.2488 128.184 19.6322 128.054 19.7594C129.304 18.5362 131.88 18.0788 133.52 18.742C135.702 19.625 134.118 21.372 132.013 21.9624C131.339 22.1512 131.079 22.9683 131.517 23.5119C132.642 24.9075 132.8 26.3126 132.299 26.8133C131.692 27.4209 129.932 27.0183 128.487 25.5731C127.557 24.6434 126.977 23.4985 126.974 22.5855C126.972 22.0488 126.537 21.6147 126 21.6147C125.463 21.6147 125.027 22.0488 125.025 22.5855C125.022 23.4985 124.443 24.6434 123.512 25.5731C122.067 27.0191 120.307 27.4203 119.7 26.8133C119.2 26.313 119.357 24.9087 120.482 23.5119C120.921 22.9675 120.659 22.1511 119.987 21.9624C117.885 21.373 116.295 19.6262 118.479 18.742ZM126 42.0514C119.296 42.0514 113.841 37.069 113.841 30.9452C113.841 27.9395 115.172 25.0788 117.516 22.9921C117.737 23.1315 117.973 23.2615 118.224 23.38C117.339 24.9609 117.075 26.9437 118.323 28.1912C120.231 30.0992 124.088 28.5812 126 25.5729C127.873 28.5212 131.754 30.113 133.677 28.1912C134.938 26.9303 134.64 24.9237 133.776 23.38C134.027 23.2614 134.263 23.1314 134.484 22.9921C136.828 25.0788 138.159 27.9395 138.159 30.9452C138.159 37.0692 132.704 42.0514 126 42.0514Z" fill="black"/>
<path d="M117.738 30.9452C117.738 30.407 117.302 29.9709 116.764 29.9709C116.226 29.9709 115.79 30.407 115.79 30.9452C115.79 32.9835 116.522 34.9134 117.908 36.5265C118.259 36.9351 118.874 36.9811 119.282 36.6308C119.69 36.2802 119.737 35.6651 119.386 35.2569C118.308 34.002 117.738 32.5111 117.738 30.9452Z" fill="black"/>
</g>
<path d="M6.672 43C6.128 43 5.68 42.824 5.328 42.472C4.976 42.12 4.8 41.672 4.8 41.128V7.384C4.8 6.84 4.976 6.392 5.328 6.04C5.68 5.688 6.128 5.512 6.672 5.512H16.272C18.64 5.512 20.736 6.04 22.56 7.096C24.384 8.12 25.808 9.544 26.832 11.368C27.856 13.192 28.368 15.304 28.368 17.704C28.368 20.04 27.856 22.12 26.832 23.944C25.808 25.736 24.384 27.16 22.56 28.216C20.736 29.24 18.64 29.752 16.272 29.752H8.544V41.128C8.544 41.672 8.368 42.12 8.016 42.472C7.664 42.824 7.216 43 6.672 43ZM8.544 26.152H16.272C17.904 26.152 19.36 25.8 20.64 25.096C21.92 24.36 22.912 23.352 23.616 22.072C24.352 20.792 24.72 19.336 24.72 17.704C24.72 16.008 24.352 14.52 23.616 13.24C22.912 11.96 21.92 10.952 20.64 10.216C19.36 9.48 17.904 9.112 16.272 9.112H8.544V26.152ZM44.7251 43.24C42.1651 43.24 39.8771 42.664 37.8611 41.512C35.8451 40.36 34.2611 38.776 33.1091 36.76C31.9571 34.744 31.3811 32.456 31.3811 29.896C31.3811 27.304 31.9571 25 33.1091 22.984C34.2611 20.968 35.8451 19.384 37.8611 18.232C39.8771 17.08 42.1651 16.504 44.7251 16.504C47.2851 16.504 49.5571 17.08 51.5411 18.232C53.5571 19.384 55.1411 20.968 56.2931 22.984C57.4451 25 58.0371 27.304 58.0691 29.896C58.0691 32.456 57.4771 34.744 56.2931 36.76C55.1411 38.776 53.5571 40.36 51.5411 41.512C49.5571 42.664 47.2851 43.24 44.7251 43.24ZM44.7251 39.88C46.5811 39.88 48.2451 39.448 49.7171 38.584C51.1891 37.72 52.3411 36.536 53.1731 35.032C54.0051 33.528 54.4211 31.816 54.4211 29.896C54.4211 27.976 54.0051 26.264 53.1731 24.76C52.3411 23.224 51.1891 22.024 49.7171 21.16C48.2451 20.296 46.5811 19.864 44.7251 19.864C42.8691 19.864 41.2051 20.296 39.7331 21.16C38.2611 22.024 37.0931 23.224 36.2291 24.76C35.3971 26.264 34.9811 27.976 34.9811 29.896C34.9811 31.816 35.3971 33.528 36.2291 35.032C37.0931 36.536 38.2611 37.72 39.7331 38.584C41.2051 39.448 42.8691 39.88 44.7251 39.88ZM100.73 43C100.186 43 99.7375 42.84 99.3855 42.52C99.0335 42.168 98.8575 41.72 98.8575 41.176V27.352C98.8575 25.08 98.2655 23.288 97.0815 21.976C95.8975 20.632 94.3775 19.96 92.5215 19.96C90.5375 19.96 88.9055 20.632 87.6255 21.976C86.3775 23.288 85.7695 25.048 85.8015 27.256H82.4895C82.5215 25.112 82.9855 23.224 83.8815 21.592C84.7775 19.96 86.0095 18.696 87.5775 17.8C89.1455 16.904 90.9215 16.456 92.9055 16.456C94.7935 16.456 96.4575 16.904 97.8975 17.8C99.3695 18.696 100.506 19.96 101.306 21.592C102.138 23.224 102.554 25.144 102.554 27.352V41.176C102.554 41.72 102.378 42.168 102.026 42.52C101.706 42.84 101.274 43 100.73 43ZM67.1295 43C66.5535 43 66.0895 42.84 65.7375 42.52C65.4175 42.168 65.2575 41.72 65.2575 41.176V18.616C65.2575 18.072 65.4175 17.624 65.7375 17.272C66.0895 16.92 66.5535 16.744 67.1295 16.744C67.6735 16.744 68.1055 16.92 68.4255 17.272C68.7775 17.624 68.9535 18.072 68.9535 18.616V41.176C68.9535 41.72 68.7775 42.168 68.4255 42.52C68.1055 42.84 67.6735 43 67.1295 43ZM83.9775 43C83.4335 43 82.9855 42.84 82.6335 42.52C82.2815 42.168 82.1055 41.72 82.1055 41.176V27.352C82.1055 25.08 81.5135 23.288 80.3295 21.976C79.1455 20.632 77.6255 19.96 75.7695 19.96C73.7855 19.96 72.1535 20.616 70.8735 21.928C69.5935 23.208 68.9535 24.888 68.9535 26.968H66.3135C66.3775 24.92 66.8255 23.112 67.6575 21.544C68.5215 19.944 69.6895 18.696 71.1615 17.8C72.6335 16.904 74.2975 16.456 76.1535 16.456C78.0415 16.456 79.7055 16.904 81.1455 17.8C82.6175 18.696 83.7535 19.96 84.5535 21.592C85.3855 23.224 85.8015 25.144 85.8015 27.352V41.176C85.8015 41.72 85.6255 42.168 85.2735 42.52C84.9535 42.84 84.5215 43 83.9775 43Z" fill="black"/>
<path d="M160.696 43C160.184 43 159.736 42.824 159.352 42.472C159 42.088 158.824 41.64 158.824 41.128V5.512H162.568V41.128C162.568 41.64 162.392 42.088 162.04 42.472C161.688 42.824 161.24 43 160.696 43ZM147.448 8.92C146.936 8.92 146.52 8.76 146.2 8.44C145.88 8.12 145.72 7.72 145.72 7.24C145.72 6.728 145.88 6.312 146.2 5.992C146.52 5.672 146.936 5.512 147.448 5.512H173.992C174.504 5.512 174.92 5.672 175.24 5.992C175.56 6.312 175.72 6.728 175.72 7.24C175.72 7.72 175.56 8.12 175.24 8.44C174.92 8.76 174.504 8.92 173.992 8.92H147.448ZM182.944 43C182.368 43 181.904 42.84 181.552 42.52C181.232 42.168 181.072 41.704 181.072 41.128V18.616C181.072 18.04 181.232 17.592 181.552 17.272C181.904 16.92 182.368 16.744 182.944 16.744C183.488 16.744 183.92 16.92 184.24 17.272C184.592 17.592 184.768 18.04 184.768 18.616V41.128C184.768 41.704 184.592 42.168 184.24 42.52C183.92 42.84 183.488 43 182.944 43ZM182.896 11.752C182.192 11.752 181.584 11.496 181.072 10.984C180.56 10.472 180.304 9.848 180.304 9.112C180.304 8.312 180.56 7.688 181.072 7.24C181.616 6.76 182.24 6.52 182.944 6.52C183.616 6.52 184.208 6.76 184.72 7.24C185.264 7.688 185.536 8.312 185.536 9.112C185.536 9.848 185.28 10.472 184.768 10.984C184.256 11.496 183.632 11.752 182.896 11.752ZM229.651 43C229.107 43 228.659 42.84 228.307 42.52C227.955 42.168 227.779 41.72 227.779 41.176V27.352C227.779 25.08 227.187 23.288 226.003 21.976C224.819 20.632 223.299 19.96 221.443 19.96C219.459 19.96 217.827 20.632 216.547 21.976C215.299 23.288 214.691 25.048 214.723 27.256H211.411C211.443 25.112 211.907 23.224 212.803 21.592C213.699 19.96 214.931 18.696 216.499 17.8C218.067 16.904 219.843 16.456 221.827 16.456C223.715 16.456 225.379 16.904 226.819 17.8C228.291 18.696 229.427 19.96 230.227 21.592C231.059 23.224 231.475 25.144 231.475 27.352V41.176C231.475 41.72 231.299 42.168 230.947 42.52C230.627 42.84 230.195 43 229.651 43ZM196.051 43C195.475 43 195.011 42.84 194.659 42.52C194.339 42.168 194.179 41.72 194.179 41.176V18.616C194.179 18.072 194.339 17.624 194.659 17.272C195.011 16.92 195.475 16.744 196.051 16.744C196.595 16.744 197.027 16.92 197.347 17.272C197.699 17.624 197.875 18.072 197.875 18.616V41.176C197.875 41.72 197.699 42.168 197.347 42.52C197.027 42.84 196.595 43 196.051 43ZM212.899 43C212.355 43 211.907 42.84 211.555 42.52C211.203 42.168 211.027 41.72 211.027 41.176V27.352C211.027 25.08 210.435 23.288 209.251 21.976C208.067 20.632 206.547 19.96 204.691 19.96C202.707 19.96 201.075 20.616 199.795 21.928C198.515 23.208 197.875 24.888 197.875 26.968H195.235C195.299 24.92 195.747 23.112 196.579 21.544C197.443 19.944 198.611 18.696 200.083 17.8C201.555 16.904 203.219 16.456 205.075 16.456C206.963 16.456 208.627 16.904 210.067 17.8C211.539 18.696 212.675 19.96 213.475 21.592C214.307 23.224 214.723 25.144 214.723 27.352V41.176C214.723 41.72 214.547 42.168 214.195 42.52C213.875 42.84 213.443 43 212.899 43ZM251.552 43.24C248.96 43.24 246.656 42.68 244.64 41.56C242.656 40.408 241.088 38.824 239.936 36.808C238.816 34.792 238.256 32.488 238.256 29.896C238.256 27.272 238.784 24.968 239.84 22.984C240.928 20.968 242.416 19.384 244.304 18.232C246.192 17.08 248.368 16.504 250.832 16.504C253.264 16.504 255.376 17.064 257.168 18.184C258.992 19.272 260.4 20.792 261.392 22.744C262.384 24.696 262.88 26.92 262.88 29.416C262.88 29.928 262.72 30.344 262.4 30.664C262.08 30.952 261.664 31.096 261.152 31.096H240.752V28.024H261.536L259.472 29.512C259.504 27.656 259.168 25.992 258.464 24.52C257.76 23.048 256.752 21.896 255.44 21.064C254.16 20.232 252.624 19.816 250.832 19.816C249.008 19.816 247.408 20.248 246.032 21.112C244.656 21.976 243.584 23.176 242.816 24.712C242.08 26.216 241.712 27.944 241.712 29.896C241.712 31.848 242.128 33.576 242.96 35.08C243.824 36.584 244.992 37.768 246.464 38.632C247.936 39.496 249.632 39.928 251.552 39.928C252.704 39.928 253.856 39.736 255.008 39.352C256.192 38.936 257.136 38.424 257.84 37.816C258.192 37.528 258.592 37.384 259.04 37.384C259.488 37.352 259.872 37.464 260.192 37.72C260.608 38.104 260.816 38.52 260.816 38.968C260.848 39.416 260.672 39.8 260.288 40.12C259.232 41.016 257.888 41.768 256.256 42.376C254.624 42.952 253.056 43.24 251.552 43.24ZM270.669 26.824C270.765 24.84 271.277 23.064 272.205 21.496C273.165 19.928 274.397 18.696 275.901 17.8C277.437 16.904 279.133 16.456 280.989 16.456C282.461 16.456 283.597 16.664 284.397 17.08C285.197 17.496 285.501 18.104 285.309 18.904C285.181 19.384 284.957 19.704 284.637 19.864C284.349 20.024 283.981 20.088 283.533 20.056C283.117 20.024 282.637 19.992 282.093 19.96C280.301 19.8 278.701 19.992 277.293 20.536C275.917 21.048 274.813 21.848 273.981 22.936C273.181 24.024 272.781 25.32 272.781 26.824H270.669ZM270.957 43C270.381 43 269.933 42.84 269.613 42.52C269.293 42.2 269.133 41.752 269.133 41.176V18.568C269.133 17.992 269.293 17.544 269.613 17.224C269.933 16.904 270.381 16.744 270.957 16.744C271.533 16.744 271.981 16.904 272.301 17.224C272.621 17.544 272.781 17.992 272.781 18.568V41.176C272.781 41.752 272.621 42.2 272.301 42.52C271.981 42.84 271.533 43 270.957 43Z" fill="black"/>
<defs>
<clipPath id="clip0_6_300">
<rect width="32" height="32" fill="white" transform="translate(110 12)"/>
</clipPath>
</defs>
</svg>
